<!DOCTYPE svg PUBLIC "-//W3C//DTD SVG 20010904//EN" "http://www.w3.org/TR/2001/REC-SVG-20010904/DTD/svg10.dtd">
<svg version="1.0" xmlns="http://www.w3.org/2000/svg" width="856px" height="269px" viewBox="0 0 8560 2690" preserveAspectRatio="xMidYMid meet">
<g id="layer101" fill="#000000" stroke="none">
 <path d="M595 2232 c-29 -7 -30 -10 -37 -72 -4 -36 -9 -84 -12 -106 l-5 -41 47 9 c56 11 121 4 162 -17 37 -19 86 -85 101 -135 11 -36 3 -60 -181 -544 -106 -279 -191 -508 -189 -509 2 -1 67 -1 144 1 l141 3 119 354 120 354 117 -351 c65 -193 119 -352 121 -354 6 -7 277 -17 277 -10 0 3 -63 178 -141 389 -77 210 -174 473 -214 583 -114 312 -145 363 -252 416 -60 29 -74 32 -177 34 -61 2 -124 0 -141 -4z"/>
 <path d="M2010 1834 c-146 -38 -260 -126 -318 -244 -93 -188 -78 -423 37 -590 173 -252 594 -277 805 -49 98 106 140 216 140 369 0 156 -45 271 -146 376 -66 69 -145 116 -233 139 -73 19 -212 18 -285 -1z m269 -237 c86 -57 128 -167 118 -308 -6 -98 -37 -168 -94 -218 -112 -100 -280 -68 -356 68 -27 48 -31 65 -35 156 -5 124 12 193 66 256 52 60 101 80 188 77 58 -3 79 -8 113 -31z"/>
 <path d="M3105 1837 c-67 -23 -101 -44 -142 -91 -74 -84 -77 -101 -81 -538 l-3 -388 135 0 135 0 3 358 c3 321 5 360 21 390 21 38 67 69 117 78 67 13 166 -31 206 -91 30 -46 35 -101 35 -417 l-1 -318 135 0 135 0 0 505 0 505 -125 0 -125 0 0 -70 0 -69 -46 44 c-25 24 -74 59 -110 76 -55 27 -77 32 -157 35 -59 3 -106 -1 -132 -9z"/>
 <path d="M4070 1325 l0 -505 125 0 125 0 1 68 c0 66 0 67 17 42 75 -111 154 -151 262 -132 32 6 74 19 93 29 l34 18 -41 116 -41 117 -39 -20 c-88 -45 -182 -19 -223 62 -34 67 -43 157 -43 448 l0 262 -135 0 -135 0 0 -505z"/>
 </g>
<g id="layer102" fill="#0000ff" stroke="none">
 <path d="M7174 2233 c-35 -5 -36 -8 -50 -144 l-7 -67 89 1 c72 2 95 -2 122 -18 36 -22 70 -69 94 -130 l16 -40 -194 -510 c-107 -280 -194 -510 -194 -510 0 -2 286 8 288 10 2 2 57 160 121 351 65 191 120 343 123 338 3 -5 56 -162 118 -349 62 -187 113 -341 114 -342 1 -1 64 -5 139 -9 101 -5 137 -4 137 5 0 6 -63 183 -141 394 -77 210 -174 473 -214 583 -103 283 -134 338 -217 390 -72 46 -207 64 -344 47z"/>
 <path d="M5185 1836 c-218 -54 -345 -243 -345 -512 1 -263 112 -440 318 -504 124 -38 267 -34 388 11 78 29 159 110 202 200 18 37 32 71 32 76 0 8 -214 53 -254 53 -9 0 -16 -8 -16 -17 -1 -10 -9 -32 -18 -50 -62 -114 -253 -117 -329 -3 -35 51 -46 105 -46 220 -1 216 70 320 218 320 99 0 158 -47 185 -148 8 -33 15 -42 28 -38 9 3 68 13 130 22 l114 18 -6 31 c-12 57 -73 170 -117 214 -83 82 -196 122 -344 120 -49 0 -112 -6 -140 -13z"/>
 <path d="M6688 1835 c-27 -9 -63 -30 -81 -48 -57 -58 -60 -79 -64 -434 l-4 -323 -60 0 -59 0 0 -110 0 -110 60 0 60 0 0 -99 0 -99 127 -73 c70 -41 131 -75 135 -77 4 -2 8 75 8 172 l0 176 90 0 90 0 0 110 0 110 -90 0 -90 0 0 274 c0 265 1 274 22 301 19 25 26 27 67 21 25 -3 56 -8 67 -12 27 -7 31 2 39 113 l7 89 -38 13 c-62 20 -230 24 -286 6z"/>
 <path d="M5982 1323 l3 -508 133 -3 132 -3 0 511 0 510 -135 0 -135 0 2 -507z"/>
 <path d="M5980 555 l0 -125 135 0 135 0 0 125 0 125 -135 0 -135 0 0 -125z"/>
 </g>
<g id="layer103" fill="#ffffff" stroke="none">
 <path d="M0 1345 l0 -1345 4280 0 4280 0 0 1345 0 1345 -4280 0 -4280 0 0 -1345z m913 857 c107 -53 138 -104 252 -416 40 -110 137 -373 214 -583 78 -211 141 -386 141 -389 0 -7 -271 3 -277 10 -2 2 -56 161 -121 354 l-117 351 -120 -354 -119 -354 -141 -3 c-77 -2 -142 -2 -144 -1 -2 1 83 230 189 509 184 484 192 508 181 544 -15 50 -64 116 -101 135 -41 21 -106 28 -162 17 l-47 -9 5 41 c3 22 8 70 12 106 7 62 8 65 37 72 17 4 80 6 141 4 103 -2 117 -5 177 -34z m6510 23 c100 -26 163 -78 213 -177 14 -28 58 -141 99 -252 40 -110 137 -373 214 -583 78 -211 141 -388 141 -394 0 -9 -36 -10 -137 -5 -75 4 -138 8 -139 9 -1 1 -52 155 -114 342 -62 187 -115 344 -118 349 -3 5 -58 -147 -123 -338 -64 -191 -119 -349 -121 -351 -2 -2 -288 -12 -288 -10 0 0 87 230 194 510 l194 510 -16 40 c-24 61 -58 108 -94 130 -27 16 -50 20 -122 18 l-89 -1 7 67 c14 136 15 139 50 144 76 10 196 6 249 -8z m-5128 -390 c88 -23 167 -70 233 -139 101 -105 146 -220 146 -376 0 -153 -42 -263 -140 -369 -172 -187 -499 -211 -707 -53 -115 89 -185 227 -194 387 -19 333 191 562 517 564 47 1 112 -6 145 -14z m1099 -24 c36 -17 85 -52 110 -76 l46 -44 0 69 0 70 125 0 125 0 0 -505 0 -505 -135 0 -135 0 1 318 c0 316 -5 371 -35 417 -40 60 -139 104 -206 91 -50 -9 -96 -40 -117 -78 -16 -30 -18 -69 -21 -390 l-3 -358 -135 0 -135 0 3 388 c4 437 7 454 81 538 69 79 143 105 274 100 80 -3 102 -8 157 -35z m2079 24 c81 -21 145 -56 196 -106 44 -44 105 -157 117 -214 l6 -31 -114 -18 c-62 -9 -121 -19 -130 -22 -13 -4 -20 5 -28 38 -27 101 -86 148 -185 148 -148 0 -219 -104 -218 -320 0 -115 11 -169 46 -220 76 -114 267 -111 329 3 9 18 17 40 18 50 0 9 7 17 16 17 40 0 254 -45 254 -53 0 -32 -71 -149 -119 -198 -65 -64 -131 -94 -249 -110 -176 -25 -344 29 -445 141 -86 96 -127 218 -127 384 0 269 127 458 345 512 70 17 220 17 288 -1z m1501 -6 l38 -13 -7 -89 c-8 -111 -12 -120 -39 -113 -11 4 -42 9 -67 12 -41 6 -48 4 -67 -21 -21 -27 -22 -36 -22 -301 l0 -274 90 0 90 0 0 -110 0 -110 -90 0 -90 0 0 -176 c0 -97 -4 -174 -8 -172 -4 2 -65 36 -135 77 l-127 73 0 99 0 99 -60 0 -60 0 0 110 0 110 59 0 60 0 4 323 c4 355 7 376 64 434 49 48 109 64 228 59 55 -2 117 -10 139 -17z m-2634 -261 c0 -291 9 -381 43 -448 41 -81 135 -107 223 -62 l39 20 41 -117 41 -116 -34 -18 c-19 -10 -61 -23 -93 -29 -108 -19 -187 21 -262 132 -17 25 -17 24 -17 -42 l-1 -68 -125 0 -125 0 0 505 0 505 135 0 135 0 0 -262z m1910 -248 l0 -511 -132 3 -133 3 -3 508 -2 507 135 0 135 0 0 -510z m0 -765 l0 -125 -135 0 -135 0 0 125 0 125 135 0 135 0 0 -125z"/>
 <path d="M2054 1612 c-55 -26 -108 -91 -129 -158 -14 -44 -17 -79 -13 -159 4 -91 8 -108 35 -156 76 -136 244 -168 356 -68 57 50 88 120 94 218 10 141 -32 251 -118 308 -56 37 -162 44 -225 15z"/>
 </g>

</svg>